D:\school\WTK\thesis\model\3dpredictsim\Results\debug_batch\Pog_s1_tmt_bCst_d00_k800_ig24_pas_GRF.mot
nRows=22
nColumns=19

name D:\school\WTK\thesis\model\3dpredictsim\Results\debug_batch\Pog_s1_tmt_bCst_d00_k800_ig24_pas_GRF.mot
datacolumns 19
datarows 22
range 0.0000000000 0.2334366040
endheader
time 	ground_force_vx	ground_force_vy	ground_force_vz	ground_force_px	ground_force_py	ground_force_pz	1_ground_force_vx	1_ground_force_vy	1_ground_force_vz	1_ground_force_px	1_ground_force_py	1_ground_force_pz	ground_torque_x	ground_torque_y	ground_torque_z	1_ground_torque_x	1_ground_torque_y	1_ground_torque_z
        0.0000000000	      -75.6697285295	       62.5681287288	       29.7041888787	        0.1695734637	        0.0000000000	        0.0377970831	      100.2026853322	      496.4572816441	       -4.1015378029	       -0.3177560171	        0.0000000000	       -0.0330591739	        0.0000000000	        0.0000000000	        0.0000000000	        0.0000000000	        0.0000000000	        0.0000000000	
        0.0111160288	     -120.4869580813	      139.3602270649	       75.2920781813	        0.1770433967	        0.0000000000	        0.0353724409	       81.3683092714	      415.1015919345	       -9.2850489076	       -0.3139826995	        0.0000000000	       -0.0319152155	        0.0000000000	        0.0000000000	        0.0000000000	        0.0000000000	        0.0000000000	        0.0000000000	
        0.0222320575	      -48.8811855881	      282.1458475835	       33.6556151294	        0.1829709110	        0.0000000000	        0.0328568790	       59.5347079663	      321.4663128760	       -9.5801714934	       -0.3080081619	        0.0000000000	       -0.0295917752	        0.0000000000	        0.0000000000	        0.0000000000	        0.0000000000	        0.0000000000	        0.0000000000	
        0.0333480863	      -45.5278648935	      449.3211746041	        4.0039750814	        0.1871917312	        0.0000000000	        0.0329783082	       30.4272072995	      216.2497265473	       -5.8278536552	       -0.2967804774	        0.0000000000	       -0.0243207515	        0.0000000000	        0.0000000000	        0.0000000000	        0.0000000000	        0.0000000000	        0.0000000000	
        0.0444641150	      -79.8381980556	      655.5023119014	       -6.9404277016	        0.1958056856	        0.0000000000	        0.0355171621	       10.0358352712	      141.2492351744	       -8.5174167406	       -0.2815595262	        0.0000000000	       -0.0163245081	        0.0000000000	        0.0000000000	        0.0000000000	        0.0000000000	        0.0000000000	        0.0000000000	
        0.0555801438	     -105.6778918638	      799.1178372712	      -12.5419931809	        0.2020714927	        0.0000000000	        0.0373203666	        1.2411443521	      112.3951669682	       -9.9992518103	       -0.2820541512	        0.0000000000	       -0.0167672678	        0.0000000000	        0.0000000000	        0.0000000000	        0.0000000000	        0.0000000000	        0.0000000000	
        0.0666961726	     -114.2958997193	      857.1064083771	      -13.8046096788	        0.2062279241	        0.0000000000	        0.0383859310	       -1.9594165039	       74.1298708027	       -9.2886918227	       -0.2815351518	        0.0000000000	       -0.0168318270	        0.0000000000	        0.0000000000	        0.0000000000	        0.0000000000	        0.0000000000	        0.0000000000	
        0.0778122013	     -110.9925140689	      858.3059248997	      -13.6568208894	        0.2094481463	        0.0000000000	        0.0389988963	       -7.9957253106	       30.8337221981	       -5.4049030701	       -0.2818553256	        0.0000000000	       -0.0167763845	        0.0000000000	        0.0000000000	        0.0000000000	        0.0000000000	        0.0000000000	        0.0000000000	
        0.0889282301	     -102.2402012295	      838.2556250935	      -13.8892159381	        0.2126890750	        0.0000000000	        0.0392979621	        0.1158009005	       -0.1160340222	        0.0021381812	        0.0000000000	        0.0000000000	        0.0000000000	        0.0000000000	        0.0000000000	        0.0000000000	        0.0000000000	        0.0000000000	        0.0000000000	
        0.1000442588	      -89.8929806979	      805.4179332184	      -14.5767864627	        0.2160561340	        0.0000000000	        0.0394101379	        0.0001326618	       -0.0001091808	       -0.0000080826	        0.0000000000	        0.0000000000	        0.0000000000	        0.0000000000	        0.0000000000	        0.0000000000	        0.0000000000	        0.0000000000	        0.0000000000	
        0.1111602876	      -78.3126781274	      768.1776784605	      -15.0253616109	        0.2199093952	        0.0000000000	        0.0394294621	        0.0000526688	       -0.0000377396	       -0.0000041399	        0.0000000000	        0.0000000000	        0.0000000000	        0.0000000000	        0.0000000000	        0.0000000000	        0.0000000000	        0.0000000000	        0.0000000000	
        0.1222763164	      -68.2953712758	      734.0670674066	      -15.1551230156	        0.2242798805	        0.0000000000	        0.0393354481	        0.0004699469	       -0.0003017822	       -0.0000409490	        0.0000000000	        0.0000000000	        0.0000000000	        0.0000000000	        0.0000000000	        0.0000000000	        0.0000000000	        0.0000000000	        0.0000000000	
        0.1333923451	      -58.4478355075	      701.3150448665	      -15.6318101874	        0.2286219113	        0.0000000000	        0.0392389951	        0.0059399225	       -0.0034964992	       -0.0005459180	        0.0000000000	        0.0000000000	        0.0000000000	        0.0000000000	        0.0000000000	        0.0000000000	        0.0000000000	        0.0000000000	        0.0000000000	
        0.1445083739	      -48.7984373415	      670.7714571993	      -16.1508643572	        0.2328660622	        0.0000000000	        0.0392007703	       -0.0263616481	        0.0144417667	        0.0025105115	        0.0000000000	        0.0000000000	        0.0000000000	        0.0000000000	        0.0000000000	        0.0000000000	        0.0000000000	        0.0000000000	        0.0000000000	
        0.1556244026	      -40.4964194185	      644.5829937379	      -16.7683755151	        0.2372100446	        0.0000000000	        0.0392112487	       -0.0181392660	        0.0093507336	        0.0017788482	        0.0000000000	        0.0000000000	        0.0000000000	        0.0000000000	        0.0000000000	        0.0000000000	        0.0000000000	        0.0000000000	        0.0000000000	
        0.1667404314	      -33.6394786726	      623.1249631406	      -17.4823034437	        0.2416083361	        0.0000000000	        0.0392476805	       -0.0121476672	        0.0059444284	        0.0012228612	        0.0000000000	        0.0000000000	        0.0000000000	        0.0000000000	        0.0000000000	        0.0000000000	        0.0000000000	        0.0000000000	        0.0000000000	
        0.1778564602	      -27.7690800921	      606.2395921758	      -18.0447184183	        0.2461673361	        0.0000000000	        0.0392972222	       -0.0103694204	        0.0048526109	        0.0010648170	        0.0000000000	        0.0000000000	        0.0000000000	        0.0000000000	        0.0000000000	        0.0000000000	        0.0000000000	        0.0000000000	        0.0000000000	
        0.1889724889	      -23.0761619934	      594.0572159440	      -18.3064297970	        0.2510721654	        0.0000000000	        0.0393350620	       -0.0118350674	        0.0053255954	        0.0012334625	        0.0000000000	        0.0000000000	        0.0000000000	        0.0000000000	        0.0000000000	        0.0000000000	        0.0000000000	        0.0000000000	        0.0000000000	
        0.2000885177	      -19.5269780150	      586.2401843122	      -18.3589613923	        0.2563776772	        0.0000000000	        0.0393334869	       -0.0175611256	        0.0076346328	        0.0018450524	        0.0000000000	        0.0000000000	        0.0000000000	        0.0000000000	        0.0000000000	        0.0000000000	        0.0000000000	        0.0000000000	        0.0000000000	
        0.2112045464	      -17.4240893479	      582.0853722078	      -18.2906431017	        0.2620132745	        0.0000000000	        0.0392786027	       -0.0318108270	        0.0134183844	        0.0033456754	        0.0000000000	        0.0000000000	        0.0000000000	        0.0000000000	        0.0000000000	        0.0000000000	        0.0000000000	        0.0000000000	        0.0000000000	
        0.2223205752	      -16.2419554218	      580.6187393935	      -17.9951705396	        0.2677990342	        0.0000000000	        0.0391759898	       -0.0649325517	        0.0266809764	        0.0067963975	        0.0000000000	        0.0000000000	        0.0000000000	        0.0000000000	        0.0000000000	        0.0000000000	        0.0000000000	        0.0000000000	        0.0000000000	
        0.2334366040	      -15.0006186904	      580.5957515529	      -17.7262564531	        0.2736985914	        0.0000000000	        0.0390311027	       -0.1376935067	        0.0553138104	        0.0142695934	        0.0000000000	        0.0000000000	        0.0000000000	        0.0000000000	        0.0000000000	        0.0000000000	        0.0000000000	        0.0000000000	        0.0000000000	
